<svg xmlns="http://www.w3.org/2000/svg" xmlns:xlink="http://www.w3.org/1999/xlink" width="840" height="602.75"><rect width="840" height="602.75" rx="5" ry="5" class="a"/><svg y="0%" x="0%"><circle cx="20" cy="20" r="6" fill="#ff5f58"/><circle cx="40" cy="20" r="6" fill="#ffbd2e"/><circle cx="60" cy="20" r="6" fill="#18c132"/></svg><svg height="542.75" viewBox="0 0 80 54.275" width="800" x="15" xmlns="http://www.w3.org/2000/svg" xmlns:xlink="http://www.w3.org/1999/xlink" y="50"><style>@keyframes k{0%{transform:translateX(0)}.1%{transform:translateX(-80px)}13.1%{transform:translateX(-160px)}14.6%{transform:translateX(-240px)}15.5%{transform:translateX(-320px)}16.3%{transform:translateX(-400px)}17.9%{transform:translateX(-480px)}27%{transform:translateX(-560px)}30.1%{transform:translateX(-640px)}31.7%{transform:translateX(-720px)}34.9%{transform:translateX(-800px)}40.3%{transform:translateX(-880px)}43%{transform:translateX(-960px)}43.8%{transform:translateX(-1040px)}45.4%{transform:translateX(-1120px)}46.2%{transform:translateX(-1200px)}47.5%{transform:translateX(-1280px)}48.7%{transform:translateX(-1360px)}52.2%{transform:translateX(-1440px)}53%{transform:translateX(-1520px)}54%{transform:translateX(-1600px)}55.8%{transform:translateX(-1680px)}57.2%{transform:translateX(-1760px)}59.9%{transform:translateX(-1840px)}60.8%{transform:translateX(-1920px)}61.6%{transform:translateX(-2000px)}66.6%{transform:translateX(-2080px)}68.2%{transform:translateX(-2160px)}69.1%{transform:translateX(-2240px)}70.1%{transform:translateX(-2320px)}71.6%{transform:translateX(-2400px)}73.3%{transform:translateX(-2480px)}76.4%{transform:translateX(-2560px)}77.4%{transform:translateX(-2640px)}78.3%{transform:translateX(-2720px)}84%{transform:translateX(-2800px)}84.5%{transform:translateX(-2960px)}91.4%{transform:translateX(-3040px)}93.6%{transform:translateX(-3120px)}95.1%{transform:translateX(-3200px)}96.2%{transform:translateX(-3280px)}to{transform:translateX(-3440px)}}.a{fill:#282d35}.f,.g,.h{white-space:pre}.f{fill:#a8cc8c;font-weight:700}.g,.h{fill:#b9c0cb}.h{fill:#71bef2;font-weight:700}</style><g font-family="Monaco,Consolas,Menlo,'Bitstream Vera Sans Mono','Powerline Symbols',monospace" font-size="1.67"><defs><symbol id="1"><text y="1.67" class="f">dmitry@admin</text><text x="12.024" y="1.67" class="g">:</text><text x="13.026" y="1.67" class="h">~/test</text><text x="19.038" y="1.67" class="g">$</text></symbol><symbol id="2"><text y="1.67" class="f">dmitry@admin</text><text x="12.024" y="1.67" class="g">:</text><text x="13.026" y="1.67" class="h">~/test</text><text x="19.038" y="1.67" class="g">$</text><text x="21.042" y="1.67" class="g">gendiff</text><text x="29.058" y="1.67" class="g">-f</text></symbol><symbol id="3"><text y="1.67" class="f">dmitry@admin</text><text x="12.024" y="1.67" class="g">:</text><text x="13.026" y="1.67" class="h">~/test</text><text x="19.038" y="1.67" class="g">$</text><text x="21.042" y="1.67" class="g">gendiff</text><text x="29.058" y="1.67" class="g">-f</text><text x="32.064" y="1.67" class="g">default</text></symbol><symbol id="4"><text y="1.67" class="f">dmitry@admin</text><text x="12.024" y="1.67" class="g">:</text><text x="13.026" y="1.67" class="h">~/test</text><text x="19.038" y="1.67" class="g">$</text><text x="21.042" y="1.67" class="g">gendiff</text><text x="29.058" y="1.67" class="g">-f</text><text x="32.064" y="1.67" class="g">default</text><text x="40.08" y="1.67" class="g">ini1.ini</text></symbol><symbol id="5"><text y="1.67" class="f">dmitry@admin</text><text x="12.024" y="1.67" class="g">:</text><text x="13.026" y="1.67" class="h">~/test</text><text x="19.038" y="1.67" class="g">$</text><text x="21.042" y="1.67" class="g">gendiff</text><text x="29.058" y="1.67" class="g">-f</text><text x="32.064" y="1.67" class="g">default</text><text x="40.08" y="1.67" class="g">ini1.ini</text><text x="49.098" y="1.67" class="g">ini2.ini</text></symbol><symbol id="6"><text y="1.67" class="g">{</text></symbol><symbol id="7"><text x="4.008" y="1.67" class="g">common:</text><text x="12.024" y="1.67" class="g">{</text></symbol><symbol id="8"><text x="6.012" y="1.67" class="g">-</text><text x="8.016" y="1.67" class="g">follow:</text><text x="16.032" y="1.67" class="g">false</text></symbol><symbol id="9"><text x="8.016" y="1.67" class="g">setting1:</text><text x="18.036" y="1.67" class="g">Value</text><text x="24.048" y="1.67" class="g">1</text></symbol><symbol id="10"><text x="6.012" y="1.67" class="g">-</text><text x="8.016" y="1.67" class="g">setting4:</text><text x="18.036" y="1.67" class="g">blah</text><text x="23.046" y="1.67" class="g">blah</text></symbol><symbol id="11"><text x="6.012" y="1.67" class="g">+</text><text x="8.016" y="1.67" class="g">setting3:</text><text x="18.036" y="1.67" class="g">true</text></symbol><symbol id="12"><text x="6.012" y="1.67" class="g">-</text><text x="8.016" y="1.67" class="g">setting3:</text><text x="18.036" y="1.67" class="g">{</text></symbol><symbol id="13"><text x="12.024" y="1.67" class="g">key:</text><text x="17.034" y="1.67" class="g">value</text></symbol><symbol id="14"><text x="8.016" y="1.67" class="g">}</text></symbol><symbol id="15"><text x="6.012" y="1.67" class="g">-</text><text x="8.016" y="1.67" class="g">setting5:</text><text x="18.036" y="1.67" class="g">{</text></symbol><symbol id="16"><text x="12.024" y="1.67" class="g">key5:</text><text x="18.036" y="1.67" class="g">value5</text></symbol><symbol id="17"><text x="8.016" y="1.67" class="g">setting6:</text><text x="18.036" y="1.67" class="g">{</text></symbol><symbol id="18"><text x="10.02" y="1.67" class="g">-</text><text x="12.024" y="1.67" class="g">ops:</text><text x="17.034" y="1.67" class="g">vops</text></symbol><symbol id="19"><text x="6.012" y="1.67" class="g">+</text><text x="8.016" y="1.67" class="g">setting2:</text><text x="18.036" y="1.67" class="g">200</text></symbol><symbol id="20"><text x="4.008" y="1.67" class="g">}</text></symbol><symbol id="21"><text x="2.004" y="1.67" class="g">+</text><text x="4.008" y="1.67" class="g">group1:</text><text x="12.024" y="1.67" class="g">{</text></symbol><symbol id="22"><text x="8.016" y="1.67" class="g">baz:</text><text x="13.026" y="1.67" class="g">bas</text></symbol><symbol id="23"><text x="8.016" y="1.67" class="g">foo:</text><text x="13.026" y="1.67" class="g">bar</text></symbol><symbol id="24"><text y="1.67" class="g">}</text></symbol><symbol id="25"><text y="1.67" class="f">dmitry@admin</text><text x="12.024" y="1.67" class="g">:</text><text x="13.026" y="1.67" class="h">~/test</text><text x="19.038" y="1.67" class="g">$</text><text x="21.042" y="1.67" class="g">exit</text></symbol><symbol id="a"><path fill="transparent" d="M0 0h80v25H0z"/></symbol><symbol id="b"><path fill="#6f7683" d="M0 0h1.102v2.171H0z"/></symbol></defs><path class="a" d="M0 0h80v54.275H0z"/><g style="animation-duration:13.655087s;animation-iteration-count:infinite;animation-name:k;animation-timing-function:steps(1,end)"><svg width="3520"><svg><use xlink:href="#a"/><use xlink:href="#b" x="-.004"/></svg><svg x="80"><use xlink:href="#a"/><use xlink:href="#b" x="20.996"/><use xlink:href="#1"/></svg><svg x="160"><use xlink:href="#a"/><use xlink:href="#b" x="21.996"/><text y="1.67" class="f">dmitry@admin</text><text x="12.024" y="1.67" class="g">:</text><text x="13.026" y="1.67" class="h">~/test</text><text x="19.038" y="1.67" class="g">$</text><text x="21.042" y="1.67" class="g">g</text></svg><svg x="240"><use xlink:href="#a"/><use xlink:href="#b" x="22.996"/><text y="1.67" class="f">dmitry@admin</text><text x="12.024" y="1.67" class="g">:</text><text x="13.026" y="1.67" class="h">~/test</text><text x="19.038" y="1.67" class="g">$</text><text x="21.042" y="1.67" class="g">ge</text></svg><svg x="320"><use xlink:href="#a"/><use xlink:href="#b" x="23.996"/><text y="1.67" class="f">dmitry@admin</text><text x="12.024" y="1.67" class="g">:</text><text x="13.026" y="1.67" class="h">~/test</text><text x="19.038" y="1.67" class="g">$</text><text x="21.042" y="1.67" class="g">gen</text></svg><svg x="400"><use xlink:href="#a"/><use xlink:href="#b" x="24.996"/><text y="1.67" class="f">dmitry@admin</text><text x="12.024" y="1.67" class="g">:</text><text x="13.026" y="1.67" class="h">~/test</text><text x="19.038" y="1.67" class="g">$</text><text x="21.042" y="1.67" class="g">gend</text></svg><svg x="480"><use xlink:href="#a"/><use xlink:href="#b" x="28.996"/><text y="1.67" class="f">dmitry@admin</text><text x="12.024" y="1.67" class="g">:</text><text x="13.026" y="1.67" class="h">~/test</text><text x="19.038" y="1.67" class="g">$</text><text x="21.042" y="1.67" class="g">gendiff</text></svg><svg x="560"><use xlink:href="#a"/><use xlink:href="#b" x="29.996"/><text y="1.67" class="f">dmitry@admin</text><text x="12.024" y="1.67" class="g">:</text><text x="13.026" y="1.67" class="h">~/test</text><text x="19.038" y="1.67" class="g">$</text><text x="21.042" y="1.67" class="g">gendiff</text><text x="29.058" y="1.67" class="g">-</text></svg><svg x="640"><use xlink:href="#a"/><use xlink:href="#b" x="30.996"/><use xlink:href="#2"/></svg><svg x="720"><use xlink:href="#a"/><use xlink:href="#b" x="31.996"/><use xlink:href="#2"/></svg><svg x="800"><use xlink:href="#a"/><use xlink:href="#b" x="32.996"/><text y="1.67" class="f">dmitry@admin</text><text x="12.024" y="1.67" class="g">:</text><text x="13.026" y="1.67" class="h">~/test</text><text x="19.038" y="1.67" class="g">$</text><text x="21.042" y="1.67" class="g">gendiff</text><text x="29.058" y="1.67" class="g">-f</text><text x="32.064" y="1.67" class="g">d</text></svg><svg x="880"><use xlink:href="#a"/><use xlink:href="#b" x="33.996"/><text y="1.67" class="f">dmitry@admin</text><text x="12.024" y="1.67" class="g">:</text><text x="13.026" y="1.67" class="h">~/test</text><text x="19.038" y="1.67" class="g">$</text><text x="21.042" y="1.67" class="g">gendiff</text><text x="29.058" y="1.67" class="g">-f</text><text x="32.064" y="1.67" class="g">de</text></svg><svg x="960"><use xlink:href="#a"/><use xlink:href="#b" x="34.996"/><text y="1.67" class="f">dmitry@admin</text><text x="12.024" y="1.67" class="g">:</text><text x="13.026" y="1.67" class="h">~/test</text><text x="19.038" y="1.67" class="g">$</text><text x="21.042" y="1.67" class="g">gendiff</text><text x="29.058" y="1.67" class="g">-f</text><text x="32.064" y="1.67" class="g">def</text></svg><svg x="1040"><use xlink:href="#a"/><use xlink:href="#b" x="35.996"/><text y="1.67" class="f">dmitry@admin</text><text x="12.024" y="1.67" class="g">:</text><text x="13.026" y="1.67" class="h">~/test</text><text x="19.038" y="1.67" class="g">$</text><text x="21.042" y="1.67" class="g">gendiff</text><text x="29.058" y="1.67" class="g">-f</text><text x="32.064" y="1.67" class="g">defa</text></svg><svg x="1120"><use xlink:href="#a"/><use xlink:href="#b" x="36.996"/><text y="1.67" class="f">dmitry@admin</text><text x="12.024" y="1.67" class="g">:</text><text x="13.026" y="1.67" class="h">~/test</text><text x="19.038" y="1.67" class="g">$</text><text x="21.042" y="1.67" class="g">gendiff</text><text x="29.058" y="1.67" class="g">-f</text><text x="32.064" y="1.67" class="g">defau</text></svg><svg x="1200"><use xlink:href="#a"/><use xlink:href="#b" x="37.996"/><text y="1.67" class="f">dmitry@admin</text><text x="12.024" y="1.67" class="g">:</text><text x="13.026" y="1.67" class="h">~/test</text><text x="19.038" y="1.67" class="g">$</text><text x="21.042" y="1.67" class="g">gendiff</text><text x="29.058" y="1.67" class="g">-f</text><text x="32.064" y="1.67" class="g">defaul</text></svg><svg x="1280"><use xlink:href="#a"/><use xlink:href="#b" x="38.996"/><use xlink:href="#3"/></svg><svg x="1360"><use xlink:href="#a"/><use xlink:href="#b" x="39.996"/><use xlink:href="#3"/></svg><svg x="1440"><use xlink:href="#a"/><use xlink:href="#b" x="40.996"/><text y="1.67" class="f">dmitry@admin</text><text x="12.024" y="1.67" class="g">:</text><text x="13.026" y="1.67" class="h">~/test</text><text x="19.038" y="1.67" class="g">$</text><text x="21.042" y="1.67" class="g">gendiff</text><text x="29.058" y="1.67" class="g">-f</text><text x="32.064" y="1.67" class="g">default</text><text x="40.08" y="1.67" class="g">i</text></svg><svg x="1520"><use xlink:href="#a"/><use xlink:href="#b" x="41.996"/><text y="1.67" class="f">dmitry@admin</text><text x="12.024" y="1.67" class="g">:</text><text x="13.026" y="1.67" class="h">~/test</text><text x="19.038" y="1.67" class="g">$</text><text x="21.042" y="1.67" class="g">gendiff</text><text x="29.058" y="1.67" class="g">-f</text><text x="32.064" y="1.67" class="g">default</text><text x="40.08" y="1.67" class="g">in</text></svg><svg x="1600"><use xlink:href="#a"/><use xlink:href="#b" x="42.996"/><text y="1.67" class="f">dmitry@admin</text><text x="12.024" y="1.67" class="g">:</text><text x="13.026" y="1.67" class="h">~/test</text><text x="19.038" y="1.67" class="g">$</text><text x="21.042" y="1.67" class="g">gendiff</text><text x="29.058" y="1.67" class="g">-f</text><text x="32.064" y="1.67" class="g">default</text><text x="40.08" y="1.67" class="g">ini</text></svg><svg x="1680"><use xlink:href="#a"/><use xlink:href="#b" x="43.996"/><text y="1.67" class="f">dmitry@admin</text><text x="12.024" y="1.67" class="g">:</text><text x="13.026" y="1.67" class="h">~/test</text><text x="19.038" y="1.67" class="g">$</text><text x="21.042" y="1.67" class="g">gendiff</text><text x="29.058" y="1.67" class="g">-f</text><text x="32.064" y="1.67" class="g">default</text><text x="40.08" y="1.67" class="g">ini1</text></svg><svg x="1760"><use xlink:href="#a"/><use xlink:href="#b" x="44.996"/><text y="1.67" class="f">dmitry@admin</text><text x="12.024" y="1.67" class="g">:</text><text x="13.026" y="1.67" class="h">~/test</text><text x="19.038" y="1.67" class="g">$</text><text x="21.042" y="1.67" class="g">gendiff</text><text x="29.058" y="1.67" class="g">-f</text><text x="32.064" y="1.67" class="g">default</text><text x="40.08" y="1.67" class="g">ini1.</text></svg><svg x="1840"><use xlink:href="#a"/><use xlink:href="#b" x="45.996"/><text y="1.67" class="f">dmitry@admin</text><text x="12.024" y="1.67" class="g">:</text><text x="13.026" y="1.67" class="h">~/test</text><text x="19.038" y="1.67" class="g">$</text><text x="21.042" y="1.67" class="g">gendiff</text><text x="29.058" y="1.67" class="g">-f</text><text x="32.064" y="1.67" class="g">default</text><text x="40.08" y="1.67" class="g">ini1.i</text></svg><svg x="1920"><use xlink:href="#a"/><use xlink:href="#b" x="46.996"/><text y="1.67" class="f">dmitry@admin</text><text x="12.024" y="1.67" class="g">:</text><text x="13.026" y="1.67" class="h">~/test</text><text x="19.038" y="1.67" class="g">$</text><text x="21.042" y="1.67" class="g">gendiff</text><text x="29.058" y="1.67" class="g">-f</text><text x="32.064" y="1.67" class="g">default</text><text x="40.08" y="1.67" class="g">ini1.in</text></svg><svg x="2000"><use xlink:href="#a"/><use xlink:href="#b" x="47.996"/><use xlink:href="#4"/></svg><svg x="2080"><use xlink:href="#a"/><use xlink:href="#b" x="48.996"/><use xlink:href="#4"/></svg><svg x="2160"><use xlink:href="#a"/><use xlink:href="#b" x="49.996"/><text y="1.67" class="f">dmitry@admin</text><text x="12.024" y="1.67" class="g">:</text><text x="13.026" y="1.67" class="h">~/test</text><text x="19.038" y="1.67" class="g">$</text><text x="21.042" y="1.67" class="g">gendiff</text><text x="29.058" y="1.67" class="g">-f</text><text x="32.064" y="1.67" class="g">default</text><text x="40.08" y="1.67" class="g">ini1.ini</text><text x="49.098" y="1.67" class="g">i</text></svg><svg x="2240"><use xlink:href="#a"/><use xlink:href="#b" x="50.996"/><text y="1.67" class="f">dmitry@admin</text><text x="12.024" y="1.67" class="g">:</text><text x="13.026" y="1.67" class="h">~/test</text><text x="19.038" y="1.67" class="g">$</text><text x="21.042" y="1.67" class="g">gendiff</text><text x="29.058" y="1.67" class="g">-f</text><text x="32.064" y="1.67" class="g">default</text><text x="40.08" y="1.67" class="g">ini1.ini</text><text x="49.098" y="1.67" class="g">in</text></svg><svg x="2320"><use xlink:href="#a"/><use xlink:href="#b" x="51.996"/><text y="1.67" class="f">dmitry@admin</text><text x="12.024" y="1.67" class="g">:</text><text x="13.026" y="1.67" class="h">~/test</text><text x="19.038" y="1.67" class="g">$</text><text x="21.042" y="1.67" class="g">gendiff</text><text x="29.058" y="1.67" class="g">-f</text><text x="32.064" y="1.67" class="g">default</text><text x="40.08" y="1.67" class="g">ini1.ini</text><text x="49.098" y="1.67" class="g">ini</text></svg><svg x="2400"><use xlink:href="#a"/><use xlink:href="#b" x="52.996"/><text y="1.67" class="f">dmitry@admin</text><text x="12.024" y="1.67" class="g">:</text><text x="13.026" y="1.67" class="h">~/test</text><text x="19.038" y="1.67" class="g">$</text><text x="21.042" y="1.67" class="g">gendiff</text><text x="29.058" y="1.67" class="g">-f</text><text x="32.064" y="1.67" class="g">default</text><text x="40.08" y="1.67" class="g">ini1.ini</text><text x="49.098" y="1.67" class="g">ini2</text></svg><svg x="2480"><use xlink:href="#a"/><use xlink:href="#b" x="53.996"/><text y="1.67" class="f">dmitry@admin</text><text x="12.024" y="1.67" class="g">:</text><text x="13.026" y="1.67" class="h">~/test</text><text x="19.038" y="1.67" class="g">$</text><text x="21.042" y="1.67" class="g">gendiff</text><text x="29.058" y="1.67" class="g">-f</text><text x="32.064" y="1.67" class="g">default</text><text x="40.08" y="1.67" class="g">ini1.ini</text><text x="49.098" y="1.67" class="g">ini2.</text></svg><svg x="2560"><use xlink:href="#a"/><use xlink:href="#b" x="54.996"/><text y="1.67" class="f">dmitry@admin</text><text x="12.024" y="1.67" class="g">:</text><text x="13.026" y="1.67" class="h">~/test</text><text x="19.038" y="1.67" class="g">$</text><text x="21.042" y="1.67" class="g">gendiff</text><text x="29.058" y="1.67" class="g">-f</text><text x="32.064" y="1.67" class="g">default</text><text x="40.08" y="1.67" class="g">ini1.ini</text><text x="49.098" y="1.67" class="g">ini2.i</text></svg><svg x="2640"><use xlink:href="#a"/><use xlink:href="#b" x="55.996"/><text y="1.67" class="f">dmitry@admin</text><text x="12.024" y="1.67" class="g">:</text><text x="13.026" y="1.67" class="h">~/test</text><text x="19.038" y="1.67" class="g">$</text><text x="21.042" y="1.67" class="g">gendiff</text><text x="29.058" y="1.67" class="g">-f</text><text x="32.064" y="1.67" class="g">default</text><text x="40.08" y="1.67" class="g">ini1.ini</text><text x="49.098" y="1.67" class="g">ini2.in</text></svg><svg x="2720"><use xlink:href="#a"/><use xlink:href="#b" x="56.996"/><use xlink:href="#5"/></svg><svg x="2800"><use xlink:href="#a"/><use xlink:href="#b" x="-.004" y="2.146"/><use xlink:href="#5"/></svg><svg x="2880"><use xlink:href="#a"/><use xlink:href="#b" x="-.004" y="52.079"/><use xlink:href="#5"/><use xlink:href="#6" y="2.171"/><use xlink:href="#7" y="4.342"/><use xlink:href="#8" y="6.513"/><use xlink:href="#9" y="8.684"/><use xlink:href="#10" y="10.855"/><use xlink:href="#11" y="13.026"/><use xlink:href="#12" y="15.197"/><use xlink:href="#13" y="17.368"/><use xlink:href="#14" y="19.539"/><use xlink:href="#15" y="21.71"/><use xlink:href="#16" y="23.881"/><use xlink:href="#14" y="26.052"/><use xlink:href="#17" y="28.223"/><use xlink:href="#13" y="30.394"/><use xlink:href="#18" y="32.565"/><use xlink:href="#14" y="34.736"/><use xlink:href="#19" y="36.907"/><use xlink:href="#20" y="39.078"/><use xlink:href="#21" y="41.249"/><use xlink:href="#22" y="43.42"/><use xlink:href="#23" y="45.591"/><use xlink:href="#20" y="47.762"/><use xlink:href="#24" y="49.933"/></svg><svg x="2960"><use xlink:href="#a"/><use xlink:href="#b" x="20.996" y="52.079"/><use xlink:href="#5"/><use xlink:href="#6" y="2.171"/><use xlink:href="#7" y="4.342"/><use xlink:href="#8" y="6.513"/><use xlink:href="#9" y="8.684"/><use xlink:href="#10" y="10.855"/><use xlink:href="#11" y="13.026"/><use xlink:href="#12" y="15.197"/><use xlink:href="#13" y="17.368"/><use xlink:href="#14" y="19.539"/><use xlink:href="#15" y="21.71"/><use xlink:href="#16" y="23.881"/><use xlink:href="#14" y="26.052"/><use xlink:href="#17" y="28.223"/><use xlink:href="#13" y="30.394"/><use xlink:href="#18" y="32.565"/><use xlink:href="#14" y="34.736"/><use xlink:href="#19" y="36.907"/><use xlink:href="#20" y="39.078"/><use xlink:href="#21" y="41.249"/><use xlink:href="#22" y="43.42"/><use xlink:href="#23" y="45.591"/><use xlink:href="#20" y="47.762"/><use xlink:href="#24" y="49.933"/><use xlink:href="#1" y="52.104"/></svg><svg x="3040"><use xlink:href="#a"/><use xlink:href="#b" x="21.996" y="52.079"/><use xlink:href="#5"/><use xlink:href="#6" y="2.171"/><use xlink:href="#7" y="4.342"/><use xlink:href="#8" y="6.513"/><use xlink:href="#9" y="8.684"/><use xlink:href="#10" y="10.855"/><use xlink:href="#11" y="13.026"/><use xlink:href="#12" y="15.197"/><use xlink:href="#13" y="17.368"/><use xlink:href="#14" y="19.539"/><use xlink:href="#15" y="21.71"/><use xlink:href="#16" y="23.881"/><use xlink:href="#14" y="26.052"/><use xlink:href="#17" y="28.223"/><use xlink:href="#13" y="30.394"/><use xlink:href="#18" y="32.565"/><use xlink:href="#14" y="34.736"/><use xlink:href="#19" y="36.907"/><use xlink:href="#20" y="39.078"/><use xlink:href="#21" y="41.249"/><use xlink:href="#22" y="43.42"/><use xlink:href="#23" y="45.591"/><use xlink:href="#20" y="47.762"/><use xlink:href="#24" y="49.933"/><text y="53.774" class="f">dmitry@admin</text><text x="12.024" y="53.774" class="g">:</text><text x="13.026" y="53.774" class="h">~/test</text><text x="19.038" y="53.774" class="g">$</text><text x="21.042" y="53.774" class="g">e</text></svg><svg x="3120"><use xlink:href="#a"/><use xlink:href="#b" x="22.996" y="52.079"/><use xlink:href="#5"/><use xlink:href="#6" y="2.171"/><use xlink:href="#7" y="4.342"/><use xlink:href="#8" y="6.513"/><use xlink:href="#9" y="8.684"/><use xlink:href="#10" y="10.855"/><use xlink:href="#11" y="13.026"/><use xlink:href="#12" y="15.197"/><use xlink:href="#13" y="17.368"/><use xlink:href="#14" y="19.539"/><use xlink:href="#15" y="21.71"/><use xlink:href="#16" y="23.881"/><use xlink:href="#14" y="26.052"/><use xlink:href="#17" y="28.223"/><use xlink:href="#13" y="30.394"/><use xlink:href="#18" y="32.565"/><use xlink:href="#14" y="34.736"/><use xlink:href="#19" y="36.907"/><use xlink:href="#20" y="39.078"/><use xlink:href="#21" y="41.249"/><use xlink:href="#22" y="43.42"/><use xlink:href="#23" y="45.591"/><use xlink:href="#20" y="47.762"/><use xlink:href="#24" y="49.933"/><text y="53.774" class="f">dmitry@admin</text><text x="12.024" y="53.774" class="g">:</text><text x="13.026" y="53.774" class="h">~/test</text><text x="19.038" y="53.774" class="g">$</text><text x="21.042" y="53.774" class="g">ex</text></svg><svg x="3200"><use xlink:href="#a"/><use xlink:href="#b" x="23.996" y="52.079"/><use xlink:href="#5"/><use xlink:href="#6" y="2.171"/><use xlink:href="#7" y="4.342"/><use xlink:href="#8" y="6.513"/><use xlink:href="#9" y="8.684"/><use xlink:href="#10" y="10.855"/><use xlink:href="#11" y="13.026"/><use xlink:href="#12" y="15.197"/><use xlink:href="#13" y="17.368"/><use xlink:href="#14" y="19.539"/><use xlink:href="#15" y="21.71"/><use xlink:href="#16" y="23.881"/><use xlink:href="#14" y="26.052"/><use xlink:href="#17" y="28.223"/><use xlink:href="#13" y="30.394"/><use xlink:href="#18" y="32.565"/><use xlink:href="#14" y="34.736"/><use xlink:href="#19" y="36.907"/><use xlink:href="#20" y="39.078"/><use xlink:href="#21" y="41.249"/><use xlink:href="#22" y="43.42"/><use xlink:href="#23" y="45.591"/><use xlink:href="#20" y="47.762"/><use xlink:href="#24" y="49.933"/><text y="53.774" class="f">dmitry@admin</text><text x="12.024" y="53.774" class="g">:</text><text x="13.026" y="53.774" class="h">~/test</text><text x="19.038" y="53.774" class="g">$</text><text x="21.042" y="53.774" class="g">exi</text></svg><svg x="3280"><use xlink:href="#a"/><use xlink:href="#b" x="24.996" y="52.079"/><use xlink:href="#5"/><use xlink:href="#6" y="2.171"/><use xlink:href="#7" y="4.342"/><use xlink:href="#8" y="6.513"/><use xlink:href="#9" y="8.684"/><use xlink:href="#10" y="10.855"/><use xlink:href="#11" y="13.026"/><use xlink:href="#12" y="15.197"/><use xlink:href="#13" y="17.368"/><use xlink:href="#14" y="19.539"/><use xlink:href="#15" y="21.71"/><use xlink:href="#16" y="23.881"/><use xlink:href="#14" y="26.052"/><use xlink:href="#17" y="28.223"/><use xlink:href="#13" y="30.394"/><use xlink:href="#18" y="32.565"/><use xlink:href="#14" y="34.736"/><use xlink:href="#19" y="36.907"/><use xlink:href="#20" y="39.078"/><use xlink:href="#21" y="41.249"/><use xlink:href="#22" y="43.42"/><use xlink:href="#23" y="45.591"/><use xlink:href="#20" y="47.762"/><use xlink:href="#24" y="49.933"/><use xlink:href="#25" y="52.104"/></svg><svg x="3360"><use xlink:href="#a"/><use xlink:href="#b" x="-.004" y="52.079"/><use xlink:href="#6"/><use xlink:href="#7" y="2.171"/><use xlink:href="#8" y="4.342"/><use xlink:href="#9" y="6.513"/><use xlink:href="#10" y="8.684"/><use xlink:href="#11" y="10.855"/><use xlink:href="#12" y="13.026"/><use xlink:href="#13" y="15.197"/><use xlink:href="#14" y="17.368"/><use xlink:href="#15" y="19.539"/><use xlink:href="#16" y="21.71"/><use xlink:href="#14" y="23.881"/><use xlink:href="#17" y="26.052"/><use xlink:href="#13" y="28.223"/><use xlink:href="#18" y="30.394"/><use xlink:href="#14" y="32.565"/><use xlink:href="#19" y="34.736"/><use xlink:href="#20" y="36.907"/><use xlink:href="#21" y="39.078"/><use xlink:href="#22" y="41.249"/><use xlink:href="#23" y="43.42"/><use xlink:href="#20" y="45.591"/><use xlink:href="#24" y="47.762"/><use xlink:href="#25" y="49.933"/></svg><svg x="3440"><use xlink:href="#a"/><use xlink:href="#b" x="-.004" y="52.079"/><use xlink:href="#7"/><use xlink:href="#8" y="2.171"/><use xlink:href="#9" y="4.342"/><use xlink:href="#10" y="6.513"/><use xlink:href="#11" y="8.684"/><use xlink:href="#12" y="10.855"/><use xlink:href="#13" y="13.026"/><use xlink:href="#14" y="15.197"/><use xlink:href="#15" y="17.368"/><use xlink:href="#16" y="19.539"/><use xlink:href="#14" y="21.71"/><use xlink:href="#17" y="23.881"/><use xlink:href="#13" y="26.052"/><use xlink:href="#18" y="28.223"/><use xlink:href="#14" y="30.394"/><use xlink:href="#19" y="32.565"/><use xlink:href="#20" y="34.736"/><use xlink:href="#21" y="36.907"/><use xlink:href="#22" y="39.078"/><use xlink:href="#23" y="41.249"/><use xlink:href="#20" y="43.42"/><use xlink:href="#24" y="45.591"/><use xlink:href="#25" y="47.762"/><text y="51.603" class="g">exit</text></svg></svg></g></g></svg></svg>