<svg xmlns="http://www.w3.org/2000/svg" xmlns:xlink="http://www.w3.org/1999/xlink" width="840" height="602.75"><rect width="840" height="602.75" rx="5" ry="5" class="a"/><svg y="0%" x="0%"><circle cx="20" cy="20" r="6" fill="#ff5f58"/><circle cx="40" cy="20" r="6" fill="#ffbd2e"/><circle cx="60" cy="20" r="6" fill="#18c132"/></svg><svg height="542.75" viewBox="0 0 80 54.275" width="800" x="15" xmlns="http://www.w3.org/2000/svg" xmlns:xlink="http://www.w3.org/1999/xlink" y="50"><style>@keyframes k{0%{transform:translateX(0)}.11%{transform:translateX(-80px)}10.4%{transform:translateX(-160px)}11.57%{transform:translateX(-240px)}12.23%{transform:translateX(-320px)}13.03%{transform:translateX(-400px)}15.45%{transform:translateX(-480px)}22.53%{transform:translateX(-560px)}24.29%{transform:translateX(-640px)}25.02%{transform:translateX(-720px)}54.63%{transform:translateX(-800px)}55.42%{transform:translateX(-880px)}55.93%{transform:translateX(-960px)}56.45%{transform:translateX(-1040px)}57.62%{transform:translateX(-1120px)}59.29%{transform:translateX(-1200px)}60.1%{transform:translateX(-1280px)}60.98%{transform:translateX(-1360px)}63.24%{transform:translateX(-1440px)}64.55%{transform:translateX(-1520px)}66.6%{transform:translateX(-1600px)}67.33%{transform:translateX(-1680px)}68.06%{transform:translateX(-1760px)}69.74%{transform:translateX(-1840px)}70.91%{transform:translateX(-1920px)}71.64%{transform:translateX(-2000px)}72.37%{transform:translateX(-2080px)}72.96%{transform:translateX(-2160px)}74.71%{transform:translateX(-2240px)}77.05%{transform:translateX(-2320px)}77.63%{transform:translateX(-2400px)}78.44%{transform:translateX(-2480px)}81.14%{transform:translateX(-2560px)}81.55%{transform:translateX(-2640px)}81.57%{transform:translateX(-2720px)}90.79%{transform:translateX(-2800px)}92.69%{transform:translateX(-2880px)}94.01%{transform:translateX(-2960px)}95.32%{transform:translateX(-3040px)}to{transform:translateX(-3200px)}}.a{fill:#282d35}.f,.g,.h{white-space:pre}.f{fill:#a8cc8c;font-weight:700}.g,.h{fill:#b9c0cb}.h{fill:#71bef2;font-weight:700}</style><g font-family="Monaco,Consolas,Menlo,'Bitstream Vera Sans Mono','Powerline Symbols',monospace" font-size="1.67"><defs><symbol id="1"><text y="1.67" class="f">dmitry@admin</text><text x="12.024" y="1.67" class="g">:</text><text x="13.026" y="1.67" class="h">~/test</text><text x="19.038" y="1.67" class="g">$</text></symbol><symbol id="2"><text y="1.67" class="f">dmitry@admin</text><text x="12.024" y="1.67" class="g">:</text><text x="13.026" y="1.67" class="h">~/test</text><text x="19.038" y="1.67" class="g">$</text><text x="21.042" y="1.67" class="g">gendiff</text><text x="29.058" y="1.67" class="g">-f</text></symbol><symbol id="3"><text y="1.67" class="f">dmitry@admin</text><text x="12.024" y="1.67" class="g">:</text><text x="13.026" y="1.67" class="h">~/test</text><text x="19.038" y="1.67" class="g">$</text><text x="21.042" y="1.67" class="g">gendiff</text><text x="29.058" y="1.67" class="g">-f</text><text x="32.064" y="1.67" class="g">json</text></symbol><symbol id="4"><text y="1.67" class="f">dmitry@admin</text><text x="12.024" y="1.67" class="g">:</text><text x="13.026" y="1.67" class="h">~/test</text><text x="19.038" y="1.67" class="g">$</text><text x="21.042" y="1.67" class="g">gendiff</text><text x="29.058" y="1.67" class="g">-f</text><text x="32.064" y="1.67" class="g">json</text><text x="37.074" y="1.67" class="g">ini1.ini</text></symbol><symbol id="5"><text y="1.67" class="f">dmitry@admin</text><text x="12.024" y="1.67" class="g">:</text><text x="13.026" y="1.67" class="h">~/test</text><text x="19.038" y="1.67" class="g">$</text><text x="21.042" y="1.67" class="g">gendiff</text><text x="29.058" y="1.67" class="g">-f</text><text x="32.064" y="1.67" class="g">json</text><text x="37.074" y="1.67" class="g">ini1.ini</text><text x="46.092" y="1.67" class="g">ini2.ini</text></symbol><symbol id="6"><text y="1.67" class="g">[{&quot;name&quot;:&quot;common&quot;,&quot;type&quot;:&quot;nested&quot;,&quot;children&quot;:[{&quot;name&quot;:&quot;follow&quot;,&quot;type&quot;:&quot;deleted&quot;,</text></symbol><symbol id="7"><text y="1.67" class="g">&quot;value&quot;:false},{&quot;name&quot;:&quot;setting1&quot;,&quot;type&quot;:&quot;unchanged&quot;,&quot;value&quot;:&quot;Value</text><text x="68.136" y="1.67" class="g">1&quot;},{&quot;name&quot;:</text></symbol><symbol id="8"><text y="1.67" class="g">&quot;setting4&quot;,&quot;type&quot;:&quot;deleted&quot;,&quot;value&quot;:&quot;blah</text><text x="42.084" y="1.67" class="g">blah&quot;},{&quot;name&quot;:&quot;setting3&quot;,&quot;type&quot;:&quot;chan</text></symbol><symbol id="9"><text y="1.67" class="g">ged&quot;,&quot;newValue&quot;:true,&quot;oldValue&quot;:{&quot;key&quot;:&quot;value&quot;}},{&quot;name&quot;:&quot;setting5&quot;,&quot;type&quot;:&quot;dele</text></symbol><symbol id="10"><text y="1.67" class="g">ted&quot;,&quot;value&quot;:{&quot;key5&quot;:&quot;value5&quot;}},{&quot;name&quot;:&quot;setting6&quot;,&quot;type&quot;:&quot;nested&quot;,&quot;children&quot;:[{</text></symbol><symbol id="11"><text y="1.67" class="g">&quot;name&quot;:&quot;key&quot;,&quot;type&quot;:&quot;unchanged&quot;,&quot;value&quot;:&quot;value&quot;},{&quot;name&quot;:&quot;ops&quot;,&quot;type&quot;:&quot;deleted&quot;,</text></symbol><symbol id="12"><text y="1.67" class="g">&quot;value&quot;:&quot;vops&quot;}]},{&quot;name&quot;:&quot;setting2&quot;,&quot;type&quot;:&quot;added&quot;,&quot;value&quot;:200}]},{&quot;name&quot;:&quot;grou</text></symbol><symbol id="13"><text y="1.67" class="g">p1&quot;,&quot;type&quot;:&quot;added&quot;,&quot;value&quot;:{&quot;baz&quot;:&quot;bas&quot;,&quot;foo&quot;:&quot;bar&quot;}}]</text></symbol><symbol id="14"><text y="1.67" class="f">dmitry@admin</text><text x="12.024" y="1.67" class="g">:</text><text x="13.026" y="1.67" class="h">~/test</text><text x="19.038" y="1.67" class="g">$</text><text x="21.042" y="1.67" class="g">exit</text></symbol><symbol id="a"><path fill="transparent" d="M0 0h80v25H0z"/></symbol><symbol id="b"><path fill="#6f7683" d="M0 0h1.102v2.171H0z"/></symbol></defs><path class="a" d="M0 0h80v54.275H0z"/><g style="animation-duration:17.104207s;animation-iteration-count:infinite;animation-name:k;animation-timing-function:steps(1,end)"><svg width="3280"><svg><use xlink:href="#a"/><use xlink:href="#b" x="-.004"/></svg><svg x="80"><use xlink:href="#a"/><use xlink:href="#b" x="20.996"/><use xlink:href="#1"/></svg><svg x="160"><use xlink:href="#a"/><use xlink:href="#b" x="21.996"/><text y="1.67" class="f">dmitry@admin</text><text x="12.024" y="1.67" class="g">:</text><text x="13.026" y="1.67" class="h">~/test</text><text x="19.038" y="1.67" class="g">$</text><text x="21.042" y="1.67" class="g">g</text></svg><svg x="240"><use xlink:href="#a"/><use xlink:href="#b" x="22.996"/><text y="1.67" class="f">dmitry@admin</text><text x="12.024" y="1.67" class="g">:</text><text x="13.026" y="1.67" class="h">~/test</text><text x="19.038" y="1.67" class="g">$</text><text x="21.042" y="1.67" class="g">ge</text></svg><svg x="320"><use xlink:href="#a"/><use xlink:href="#b" x="23.996"/><text y="1.67" class="f">dmitry@admin</text><text x="12.024" y="1.67" class="g">:</text><text x="13.026" y="1.67" class="h">~/test</text><text x="19.038" y="1.67" class="g">$</text><text x="21.042" y="1.67" class="g">gen</text></svg><svg x="400"><use xlink:href="#a"/><use xlink:href="#b" x="24.996"/><text y="1.67" class="f">dmitry@admin</text><text x="12.024" y="1.67" class="g">:</text><text x="13.026" y="1.67" class="h">~/test</text><text x="19.038" y="1.67" class="g">$</text><text x="21.042" y="1.67" class="g">gend</text></svg><svg x="480"><use xlink:href="#a"/><use xlink:href="#b" x="28.996"/><text y="1.67" class="f">dmitry@admin</text><text x="12.024" y="1.67" class="g">:</text><text x="13.026" y="1.67" class="h">~/test</text><text x="19.038" y="1.67" class="g">$</text><text x="21.042" y="1.67" class="g">gendiff</text></svg><svg x="560"><use xlink:href="#a"/><use xlink:href="#b" x="29.996"/><text y="1.67" class="f">dmitry@admin</text><text x="12.024" y="1.67" class="g">:</text><text x="13.026" y="1.67" class="h">~/test</text><text x="19.038" y="1.67" class="g">$</text><text x="21.042" y="1.67" class="g">gendiff</text><text x="29.058" y="1.67" class="g">-</text></svg><svg x="640"><use xlink:href="#a"/><use xlink:href="#b" x="30.996"/><use xlink:href="#2"/></svg><svg x="720"><use xlink:href="#a"/><use xlink:href="#b" x="31.996"/><use xlink:href="#2"/></svg><svg x="800"><use xlink:href="#a"/><use xlink:href="#b" x="32.996"/><text y="1.67" class="f">dmitry@admin</text><text x="12.024" y="1.67" class="g">:</text><text x="13.026" y="1.67" class="h">~/test</text><text x="19.038" y="1.67" class="g">$</text><text x="21.042" y="1.67" class="g">gendiff</text><text x="29.058" y="1.67" class="g">-f</text><text x="32.064" y="1.67" class="g">j</text></svg><svg x="880"><use xlink:href="#a"/><use xlink:href="#b" x="33.996"/><text y="1.67" class="f">dmitry@admin</text><text x="12.024" y="1.67" class="g">:</text><text x="13.026" y="1.67" class="h">~/test</text><text x="19.038" y="1.67" class="g">$</text><text x="21.042" y="1.67" class="g">gendiff</text><text x="29.058" y="1.67" class="g">-f</text><text x="32.064" y="1.67" class="g">js</text></svg><svg x="960"><use xlink:href="#a"/><use xlink:href="#b" x="34.996"/><text y="1.67" class="f">dmitry@admin</text><text x="12.024" y="1.67" class="g">:</text><text x="13.026" y="1.67" class="h">~/test</text><text x="19.038" y="1.67" class="g">$</text><text x="21.042" y="1.67" class="g">gendiff</text><text x="29.058" y="1.67" class="g">-f</text><text x="32.064" y="1.67" class="g">jso</text></svg><svg x="1040"><use xlink:href="#a"/><use xlink:href="#b" x="35.996"/><use xlink:href="#3"/></svg><svg x="1120"><use xlink:href="#a"/><use xlink:href="#b" x="36.996"/><use xlink:href="#3"/></svg><svg x="1200"><use xlink:href="#a"/><use xlink:href="#b" x="37.996"/><text y="1.67" class="f">dmitry@admin</text><text x="12.024" y="1.67" class="g">:</text><text x="13.026" y="1.67" class="h">~/test</text><text x="19.038" y="1.67" class="g">$</text><text x="21.042" y="1.67" class="g">gendiff</text><text x="29.058" y="1.67" class="g">-f</text><text x="32.064" y="1.67" class="g">json</text><text x="37.074" y="1.67" class="g">i</text></svg><svg x="1280"><use xlink:href="#a"/><use xlink:href="#b" x="38.996"/><text y="1.67" class="f">dmitry@admin</text><text x="12.024" y="1.67" class="g">:</text><text x="13.026" y="1.67" class="h">~/test</text><text x="19.038" y="1.67" class="g">$</text><text x="21.042" y="1.67" class="g">gendiff</text><text x="29.058" y="1.67" class="g">-f</text><text x="32.064" y="1.67" class="g">json</text><text x="37.074" y="1.67" class="g">in</text></svg><svg x="1360"><use xlink:href="#a"/><use xlink:href="#b" x="39.996"/><text y="1.67" class="f">dmitry@admin</text><text x="12.024" y="1.67" class="g">:</text><text x="13.026" y="1.67" class="h">~/test</text><text x="19.038" y="1.67" class="g">$</text><text x="21.042" y="1.67" class="g">gendiff</text><text x="29.058" y="1.67" class="g">-f</text><text x="32.064" y="1.67" class="g">json</text><text x="37.074" y="1.67" class="g">ini</text></svg><svg x="1440"><use xlink:href="#a"/><use xlink:href="#b" x="40.996"/><text y="1.67" class="f">dmitry@admin</text><text x="12.024" y="1.67" class="g">:</text><text x="13.026" y="1.67" class="h">~/test</text><text x="19.038" y="1.67" class="g">$</text><text x="21.042" y="1.67" class="g">gendiff</text><text x="29.058" y="1.67" class="g">-f</text><text x="32.064" y="1.67" class="g">json</text><text x="37.074" y="1.67" class="g">ini1</text></svg><svg x="1520"><use xlink:href="#a"/><use xlink:href="#b" x="41.996"/><text y="1.67" class="f">dmitry@admin</text><text x="12.024" y="1.67" class="g">:</text><text x="13.026" y="1.67" class="h">~/test</text><text x="19.038" y="1.67" class="g">$</text><text x="21.042" y="1.67" class="g">gendiff</text><text x="29.058" y="1.67" class="g">-f</text><text x="32.064" y="1.67" class="g">json</text><text x="37.074" y="1.67" class="g">ini1.</text></svg><svg x="1600"><use xlink:href="#a"/><use xlink:href="#b" x="42.996"/><text y="1.67" class="f">dmitry@admin</text><text x="12.024" y="1.67" class="g">:</text><text x="13.026" y="1.67" class="h">~/test</text><text x="19.038" y="1.67" class="g">$</text><text x="21.042" y="1.67" class="g">gendiff</text><text x="29.058" y="1.67" class="g">-f</text><text x="32.064" y="1.67" class="g">json</text><text x="37.074" y="1.67" class="g">ini1.i</text></svg><svg x="1680"><use xlink:href="#a"/><use xlink:href="#b" x="43.996"/><text y="1.67" class="f">dmitry@admin</text><text x="12.024" y="1.67" class="g">:</text><text x="13.026" y="1.67" class="h">~/test</text><text x="19.038" y="1.67" class="g">$</text><text x="21.042" y="1.67" class="g">gendiff</text><text x="29.058" y="1.67" class="g">-f</text><text x="32.064" y="1.67" class="g">json</text><text x="37.074" y="1.67" class="g">ini1.in</text></svg><svg x="1760"><use xlink:href="#a"/><use xlink:href="#b" x="44.996"/><use xlink:href="#4"/></svg><svg x="1840"><use xlink:href="#a"/><use xlink:href="#b" x="45.996"/><use xlink:href="#4"/></svg><svg x="1920"><use xlink:href="#a"/><use xlink:href="#b" x="46.996"/><text y="1.67" class="f">dmitry@admin</text><text x="12.024" y="1.67" class="g">:</text><text x="13.026" y="1.67" class="h">~/test</text><text x="19.038" y="1.67" class="g">$</text><text x="21.042" y="1.67" class="g">gendiff</text><text x="29.058" y="1.67" class="g">-f</text><text x="32.064" y="1.67" class="g">json</text><text x="37.074" y="1.67" class="g">ini1.ini</text><text x="46.092" y="1.67" class="g">i</text></svg><svg x="2000"><use xlink:href="#a"/><use xlink:href="#b" x="47.996"/><text y="1.67" class="f">dmitry@admin</text><text x="12.024" y="1.67" class="g">:</text><text x="13.026" y="1.67" class="h">~/test</text><text x="19.038" y="1.67" class="g">$</text><text x="21.042" y="1.67" class="g">gendiff</text><text x="29.058" y="1.67" class="g">-f</text><text x="32.064" y="1.67" class="g">json</text><text x="37.074" y="1.67" class="g">ini1.ini</text><text x="46.092" y="1.67" class="g">in</text></svg><svg x="2080"><use xlink:href="#a"/><use xlink:href="#b" x="48.996"/><text y="1.67" class="f">dmitry@admin</text><text x="12.024" y="1.67" class="g">:</text><text x="13.026" y="1.67" class="h">~/test</text><text x="19.038" y="1.67" class="g">$</text><text x="21.042" y="1.67" class="g">gendiff</text><text x="29.058" y="1.67" class="g">-f</text><text x="32.064" y="1.67" class="g">json</text><text x="37.074" y="1.67" class="g">ini1.ini</text><text x="46.092" y="1.67" class="g">ini</text></svg><svg x="2160"><use xlink:href="#a"/><use xlink:href="#b" x="49.996"/><text y="1.67" class="f">dmitry@admin</text><text x="12.024" y="1.67" class="g">:</text><text x="13.026" y="1.67" class="h">~/test</text><text x="19.038" y="1.67" class="g">$</text><text x="21.042" y="1.67" class="g">gendiff</text><text x="29.058" y="1.67" class="g">-f</text><text x="32.064" y="1.67" class="g">json</text><text x="37.074" y="1.67" class="g">ini1.ini</text><text x="46.092" y="1.67" class="g">ini2</text></svg><svg x="2240"><use xlink:href="#a"/><use xlink:href="#b" x="50.996"/><text y="1.67" class="f">dmitry@admin</text><text x="12.024" y="1.67" class="g">:</text><text x="13.026" y="1.67" class="h">~/test</text><text x="19.038" y="1.67" class="g">$</text><text x="21.042" y="1.67" class="g">gendiff</text><text x="29.058" y="1.67" class="g">-f</text><text x="32.064" y="1.67" class="g">json</text><text x="37.074" y="1.67" class="g">ini1.ini</text><text x="46.092" y="1.67" class="g">ini2.</text></svg><svg x="2320"><use xlink:href="#a"/><use xlink:href="#b" x="51.996"/><text y="1.67" class="f">dmitry@admin</text><text x="12.024" y="1.67" class="g">:</text><text x="13.026" y="1.67" class="h">~/test</text><text x="19.038" y="1.67" class="g">$</text><text x="21.042" y="1.67" class="g">gendiff</text><text x="29.058" y="1.67" class="g">-f</text><text x="32.064" y="1.67" class="g">json</text><text x="37.074" y="1.67" class="g">ini1.ini</text><text x="46.092" y="1.67" class="g">ini2.i</text></svg><svg x="2400"><use xlink:href="#a"/><use xlink:href="#b" x="52.996"/><text y="1.67" class="f">dmitry@admin</text><text x="12.024" y="1.67" class="g">:</text><text x="13.026" y="1.67" class="h">~/test</text><text x="19.038" y="1.67" class="g">$</text><text x="21.042" y="1.67" class="g">gendiff</text><text x="29.058" y="1.67" class="g">-f</text><text x="32.064" y="1.67" class="g">json</text><text x="37.074" y="1.67" class="g">ini1.ini</text><text x="46.092" y="1.67" class="g">ini2.in</text></svg><svg x="2480"><use xlink:href="#a"/><use xlink:href="#b" x="53.996"/><use xlink:href="#5"/></svg><svg x="2560"><use xlink:href="#a"/><use xlink:href="#b" x="-.004" y="2.146"/><use xlink:href="#5"/></svg><svg x="2640"><use xlink:href="#a"/><use xlink:href="#b" x="-.004" y="19.514"/><use xlink:href="#5"/><use xlink:href="#6" y="2.171"/><use xlink:href="#7" y="4.342"/><use xlink:href="#8" y="6.513"/><use xlink:href="#9" y="8.684"/><use xlink:href="#10" y="10.855"/><use xlink:href="#11" y="13.026"/><use xlink:href="#12" y="15.197"/><use xlink:href="#13" y="17.368"/></svg><svg x="2720"><use xlink:href="#a"/><use xlink:href="#b" x="20.996" y="19.514"/><use xlink:href="#5"/><use xlink:href="#6" y="2.171"/><use xlink:href="#7" y="4.342"/><use xlink:href="#8" y="6.513"/><use xlink:href="#9" y="8.684"/><use xlink:href="#10" y="10.855"/><use xlink:href="#11" y="13.026"/><use xlink:href="#12" y="15.197"/><use xlink:href="#13" y="17.368"/><use xlink:href="#1" y="19.539"/></svg><svg x="2800"><use xlink:href="#a"/><use xlink:href="#b" x="21.996" y="19.514"/><use xlink:href="#5"/><use xlink:href="#6" y="2.171"/><use xlink:href="#7" y="4.342"/><use xlink:href="#8" y="6.513"/><use xlink:href="#9" y="8.684"/><use xlink:href="#10" y="10.855"/><use xlink:href="#11" y="13.026"/><use xlink:href="#12" y="15.197"/><use xlink:href="#13" y="17.368"/><text y="21.209" class="f">dmitry@admin</text><text x="12.024" y="21.209" class="g">:</text><text x="13.026" y="21.209" class="h">~/test</text><text x="19.038" y="21.209" class="g">$</text><text x="21.042" y="21.209" class="g">e</text></svg><svg x="2880"><use xlink:href="#a"/><use xlink:href="#b" x="22.996" y="19.514"/><use xlink:href="#5"/><use xlink:href="#6" y="2.171"/><use xlink:href="#7" y="4.342"/><use xlink:href="#8" y="6.513"/><use xlink:href="#9" y="8.684"/><use xlink:href="#10" y="10.855"/><use xlink:href="#11" y="13.026"/><use xlink:href="#12" y="15.197"/><use xlink:href="#13" y="17.368"/><text y="21.209" class="f">dmitry@admin</text><text x="12.024" y="21.209" class="g">:</text><text x="13.026" y="21.209" class="h">~/test</text><text x="19.038" y="21.209" class="g">$</text><text x="21.042" y="21.209" class="g">ex</text></svg><svg x="2960"><use xlink:href="#a"/><use xlink:href="#b" x="23.996" y="19.514"/><use xlink:href="#5"/><use xlink:href="#6" y="2.171"/><use xlink:href="#7" y="4.342"/><use xlink:href="#8" y="6.513"/><use xlink:href="#9" y="8.684"/><use xlink:href="#10" y="10.855"/><use xlink:href="#11" y="13.026"/><use xlink:href="#12" y="15.197"/><use xlink:href="#13" y="17.368"/><text y="21.209" class="f">dmitry@admin</text><text x="12.024" y="21.209" class="g">:</text><text x="13.026" y="21.209" class="h">~/test</text><text x="19.038" y="21.209" class="g">$</text><text x="21.042" y="21.209" class="g">exi</text></svg><svg x="3040"><use xlink:href="#a"/><use xlink:href="#b" x="24.996" y="19.514"/><use xlink:href="#5"/><use xlink:href="#6" y="2.171"/><use xlink:href="#7" y="4.342"/><use xlink:href="#8" y="6.513"/><use xlink:href="#9" y="8.684"/><use xlink:href="#10" y="10.855"/><use xlink:href="#11" y="13.026"/><use xlink:href="#12" y="15.197"/><use xlink:href="#13" y="17.368"/><use xlink:href="#14" y="19.539"/></svg><svg x="3120"><use xlink:href="#a"/><use xlink:href="#b" x="-.004" y="21.685"/><use xlink:href="#5"/><use xlink:href="#6" y="2.171"/><use xlink:href="#7" y="4.342"/><use xlink:href="#8" y="6.513"/><use xlink:href="#9" y="8.684"/><use xlink:href="#10" y="10.855"/><use xlink:href="#11" y="13.026"/><use xlink:href="#12" y="15.197"/><use xlink:href="#13" y="17.368"/><use xlink:href="#14" y="19.539"/></svg><svg x="3200"><use xlink:href="#a"/><use xlink:href="#b" x="-.004" y="23.856"/><use xlink:href="#5"/><use xlink:href="#6" y="2.171"/><use xlink:href="#7" y="4.342"/><use xlink:href="#8" y="6.513"/><use xlink:href="#9" y="8.684"/><use xlink:href="#10" y="10.855"/><use xlink:href="#11" y="13.026"/><use xlink:href="#12" y="15.197"/><use xlink:href="#13" y="17.368"/><use xlink:href="#14" y="19.539"/><text y="23.38" class="g">exit</text></svg></svg></g></g></svg></svg>